<?xml version="1.0" encoding="UTF-8" standalone="no"?>
<svg xmlns="http://www.w3.org/2000/svg" xmlns:xlink="http://www.w3.org/1999/xlink" width="800" height="800" viewBox="0 0 800 800">
  <defs>
    <!-- Earth gradient -->
    <radialGradient id="earthGradient" cx="50%" cy="50%" r="50%" fx="50%" fy="50%">
      <stop offset="0%" style="stop-color:#1E88E5;stop-opacity:1" />
      <stop offset="100%" style="stop-color:#0D47A1;stop-opacity:1" />
    </radialGradient>
    
    <!-- Orbit path -->
    <ellipse id="orbitPath" cx="400" cy="400" rx="300" ry="150" fill="none" stroke="none"/>
    
    <!-- Social Media Icons -->
    <!-- Facebook -->
    <g id="facebook">
      <circle cx="0" cy="0" r="25" fill="#3b5998"/>
      <path d="M 0,-15 L 0,15 M -15,0 L 15,0" stroke="white" stroke-width="5" transform="rotate(45)"/>
    </g>
    
    <!-- Twitter/X -->
    <g id="twitter">
      <circle cx="0" cy="0" r="25" fill="#1DA1F2"/>
      <path d="M -12,-12 L 12,12 M -12,12 L 12,-12" stroke="white" stroke-width="5"/>
    </g>
    
    <!-- Instagram -->
    <g id="instagram">
      <circle cx="0" cy="0" r="25" fill="#E1306C"/>
      <circle cx="0" cy="0" r="12" fill="none" stroke="white" stroke-width="4"/>
      <circle cx="10" cy="-10" r="3" fill="white"/>
    </g>
    
    <!-- LinkedIn -->
    <g id="linkedin">
      <circle cx="0" cy="0" r="25" fill="#0077B5"/>
      <rect x="-10" y="-10" width="20" height="20" fill="none" stroke="white" stroke-width="4" transform="rotate(45)"/>
    </g>
    
    <!-- YouTube -->
    <g id="youtube">
      <circle cx="0" cy="0" r="25" fill="#FF0000"/>
      <polygon points="-8,-12 12,0 -8,12" fill="white" transform="rotate(90)"/>
    </g>
    
    <!-- Pinterest -->
    <g id="pinterest">
      <circle cx="0" cy="0" r="25" fill="#E60023"/>
      <circle cx="0" cy="0" r="12" fill="none" stroke="white" stroke-width="4" transform="rotate(45)"/>
    </g>
  </defs>
  
  <!-- Background -->
  <rect width="800" height="800" fill="#121212"/>
  
  <!-- Orbit ellipses -->
  <ellipse cx="400" cy="400" rx="300" ry="150" fill="none" stroke="#333" stroke-width="2" transform="rotate(0, 400, 400)"/>
  <ellipse cx="400" cy="400" rx="300" ry="150" fill="none" stroke="#333" stroke-width="2" transform="rotate(60, 400, 400)"/>
  <ellipse cx="400" cy="400" rx="300" ry="150" fill="none" stroke="#333" stroke-width="2" transform="rotate(120, 400, 400)"/>
  
  <!-- Earth -->
  <circle cx="400" cy="400" r="100" fill="url(#earthGradient)"/>
  
  <!-- Continents (simplified) -->
  <path d="M 380,320 Q 420,340 450,330 T 480,370 Q 460,390 430,385 T 390,410 Q 370,400 360,380 T 380,320" fill="#4CAF50" opacity="0.7"/>
  <path d="M 330,350 Q 350,370 340,390 T 320,420 Q 300,410 310,390 T 330,350" fill="#4CAF50" opacity="0.7"/>
  <path d="M 420,450 Q 450,440 470,460 T 450,490 Q 420,480 410,460 T 420,450" fill="#4CAF50" opacity="0.7"/>
  
  <!-- Social Media Icons on Orbits -->
  <!-- Orbit 1 -->
  <use xlink:href="#facebook" transform="translate(700, 400) rotate(45)"/>
  <use xlink:href="#twitter" transform="translate(550, 475) rotate(90)"/>
  <use xlink:href="#instagram" transform="translate(400, 550) rotate(135)"/>
  <use xlink:href="#linkedin" transform="translate(250, 475) rotate(180)"/>
  <use xlink:href="#youtube" transform="translate(100, 400) rotate(225)"/>
  <use xlink:href="#pinterest" transform="translate(250, 325) rotate(270)"/>
  
  <!-- Orbit 2 -->
  <use xlink:href="#facebook" transform="translate(580, 230) rotate(60)"/>
  <use xlink:href="#twitter" transform="translate(500, 150) rotate(105)"/>
  <use xlink:href="#instagram" transform="translate(300, 150) rotate(150)"/>
  <use xlink:href="#linkedin" transform="translate(220, 230) rotate(195)"/>
  <use xlink:href="#youtube" transform="translate(300, 570) rotate(240)"/>
  <use xlink:href="#pinterest" transform="translate(500, 570) rotate(285)"/>
  
  <!-- Orbit 3 -->
  <use xlink:href="#facebook" transform="translate(400, 250) rotate(75)"/>
  <use xlink:href="#twitter" transform="translate(550, 300) rotate(120)"/>
  <use xlink:href="#instagram" transform="translate(550, 500) rotate(165)"/>
  <use xlink:href="#linkedin" transform="translate(400, 550) rotate(210)"/>
  <use xlink:href="#youtube" transform="translate(250, 500) rotate(255)"/>
  <use xlink:href="#pinterest" transform="translate(250, 300) rotate(300)"/>
  
  <!-- Connection lines (subtle) -->
  <g stroke="#444" stroke-width="1" opacity="0.5">
    <line x1="400" y1="400" x2="700" y2="400"/>
    <line x1="400" y1="400" x2="550" y2="475"/>
    <line x1="400" y1="400" x2="400" y2="550"/>
    <line x1="400" y1="400" x2="250" y2="475"/>
    <line x1="400" y1="400" x2="100" y2="400"/>
    <line x1="400" y1="400" x2="250" y2="325"/>
    
    <line x1="400" y1="400" x2="580" y2="230"/>
    <line x1="400" y1="400" x2="500" y2="150"/>
    <line x1="400" y1="400" x2="300" y2="150"/>
    <line x1="400" y1="400" x2="220" y2="230"/>
    <line x1="400" y1="400" x2="300" y2="570"/>
    <line x1="400" y1="400" x2="500" y2="570"/>
    
    <line x1="400" y1="400" x2="400" y2="250"/>
    <line x1="400" y1="400" x2="550" y2="300"/>
    <line x1="400" y1="400" x2="550" y2="500"/>
    <line x1="400" y1="400" x2="400" y2="550"/>
    <line x1="400" y1="400" x2="250" y2="500"/>
    <line x1="400" y1="400" x2="250" y2="300"/>
  </g>
</svg>